<svg xmlns="http://www.w3.org/2000/svg" viewBox="0 0 64 64">
  <circle cx="32" cy="32" r="30" fill="#0891b2"/>
  <g fill="#fff">
    <!-- trunk -->
    <path d="M30 58 C28 44 26 36 30 28 Q32 24 34 28 C38 36 36 44 34 58 Z" opacity="0.85"/>
    <!-- left fronds -->
    <path d="M32 26 C24 22 14 24 8 30 C16 24 24 22 30 24 Z"/>
    <path d="M32 24 C22 16 12 14 6 16 C14 14 22 14 30 22 Z"/>
    <path d="M30 22 C24 12 18 8 10 6 C18 10 22 14 28 22 Z"/>
    <!-- right fronds -->
    <path d="M32 26 C40 22 50 24 56 30 C48 24 40 22 34 24 Z"/>
    <path d="M32 24 C42 16 52 14 58 16 C50 14 42 14 34 22 Z"/>
    <path d="M34 22 C40 12 46 8 54 6 C46 10 42 14 36 22 Z"/>
  </g>
</svg>
